<svg width="25" height="25" viewBox="0 0 25 25" fill="none" xmlns="http://www.w3.org/2000/svg">
<path d="M20.2414 17.3403C20.1422 17.3403 20.0431 17.304 19.9657 17.2307L15.3272 12.8791C15.1651 12.7276 15.1571 12.472 15.3094 12.31C15.4618 12.1463 15.7157 12.1391 15.8794 12.2923L20.5179 16.6438C20.6799 16.7953 20.688 17.0509 20.5356 17.2129C20.4558 17.2976 20.3494 17.3403 20.2414 17.3403Z" fill="#333333"/>
<path d="M4.75784 17.3404C4.65062 17.3404 4.54341 17.2976 4.4636 17.213C4.31124 17.051 4.3193 16.7954 4.48133 16.6439L9.12147 12.2923C9.28431 12.1408 9.53986 12.1472 9.69141 12.31C9.84377 12.4721 9.83571 12.7276 9.67368 12.8792L5.03354 17.2307C4.95615 17.3041 4.85699 17.3404 4.75784 17.3404Z" fill="#333333"/>
<path d="M22.9847 21.3862H2.01535C0.904489 21.3862 0 20.4826 0 19.3709V5.62863C0 4.51696 0.904489 3.61328 2.01535 3.61328H22.9847C24.0955 3.61328 25 4.51696 25 5.62863V19.3709C25 20.4826 24.0955 21.3862 22.9847 21.3862ZM2.01535 4.41942C1.34867 4.41942 0.80614 4.96195 0.80614 5.62863V19.3709C0.80614 20.0376 1.34867 20.5801 2.01535 20.5801H22.9847C23.6513 20.5801 24.1939 20.0376 24.1939 19.3709V5.62863C24.1939 4.96195 23.6513 4.41942 22.9847 4.41942H2.01535Z" fill="#333333"/>
<path d="M12.5 14.525C11.9639 14.525 11.4278 14.3468 11.0199 13.9913L0.669086 4.96172C0.501409 4.81581 0.483674 4.56107 0.629585 4.39259C0.777109 4.22491 1.03104 4.20959 1.19872 4.35389L11.5496 13.3827C12.0647 13.8317 12.9353 13.8317 13.4496 13.3827L23.7876 4.3684C23.9544 4.22249 24.2084 4.23861 24.3567 4.4071C24.5026 4.57558 24.4857 4.82951 24.318 4.97623L13.9801 13.9905C13.5713 14.3468 13.0361 14.525 12.5 14.525Z" fill="#333333"/>
</svg>
