<svg width="66" height="66" viewBox="0 0 66 66" fill="none" xmlns="http://www.w3.org/2000/svg">
<circle cx="33" cy="33" r="33" fill="white"/>
<g clip-path="url(#clip0)">
<path d="M51.6051 28.0361L34.0665 15.1947C33.7283 14.9471 33.2688 14.9471 32.9308 15.1947L15.3921 28.0361C14.9637 28.3498 14.8706 28.9513 15.1843 29.3797C15.498 29.8081 16.0996 29.9011 16.5279 29.5875L33.4986 17.1619L50.4692 29.5874C50.6403 29.7128 50.8392 29.7732 51.0364 29.7732C51.3324 29.7732 51.6245 29.6369 51.8128 29.3797C52.1266 28.9513 52.0335 28.3498 51.6051 28.0361Z" fill="#02A1B5"/>
<path d="M46.9607 29.8049C46.4298 29.8049 45.9993 30.2353 45.9993 30.7663V46.0685H38.3087V37.7156C38.3087 35.0649 36.1521 32.9085 33.5016 32.9085C30.851 32.9085 28.6945 35.065 28.6945 37.7156V46.0685H21.0038V30.7664C21.0038 30.2354 20.5733 29.805 20.0424 29.805C19.5115 29.805 19.0811 30.2354 19.0811 30.7664V47.03C19.0811 47.5609 19.5115 47.9913 20.0424 47.9913H29.6558C30.1614 47.9913 30.5751 47.6007 30.6134 47.1048C30.6157 47.0823 30.6172 47.0578 30.6172 47.03V37.7156C30.6172 36.1251 31.9111 34.8312 33.5016 34.8312C35.0921 34.8312 36.386 36.1252 36.386 37.7156V47.03C36.386 47.0576 36.3874 47.0818 36.3898 47.104C36.4276 47.6002 36.8415 47.9913 37.3473 47.9913H46.9608C47.4917 47.9913 47.9221 47.5609 47.9221 47.03V30.7664C47.922 30.2353 47.4916 29.8049 46.9607 29.8049Z" fill="#02A1B5"/>
</g>
<defs>
<clipPath id="clip0">
<rect width="37" height="37" fill="white" transform="translate(15 13)"/>
</clipPath>
</defs>
</svg>
